<svg width="32" height="24" viewBox="0 0 32 24" fill="none" xmlns="http://www.w3.org/2000/svg">
<path d="M31.375 7.9375C29.9375 9.0625 28.125 10.4375 21.75 15.0625C20.5 16 18.1875 18.0625 16 18.0625C13.75 18.0625 11.5 16 10.1875 15.0625C3.8125 10.4375 2 9.0625 0.5625 7.9375C0.3125 7.75 0 7.9375 0 8.25V22C0 23.125 0.84375 24 1.875 24H30.0625C31.125 24 32 23.125 32 22V8.25C32 7.9375 31.625 7.75 31.375 7.9375Z" fill="red"/>
<path d="M16 15.5625C17.625 15.5625 19.5 14.5 20.8125 13.5L31.25 5.0625C31.375 4.9375 31.375 4.75 31.25 4.625C30 3.625 28.75 2.6875 22.375 7.0625L16 11.4375L9.59375 7.0625C3.21875 2.6875 1.96875 3.625 0.71875 4.625C0.59375 4.75 0.59375 4.9375 0.71875 5.0625L11.1562 13.5C12.5 14.5 14.375 15.5625 16 15.5625Z" fill="red"/>
</svg>